<svg width="24" height="24" viewBox="0 0 24 24" fill="none" xmlns="http://www.w3.org/2000/svg">
<mask id="path-1-inside-1_2915_563" fill="white">
<path d="M8.07005 12.5427L16.4296 20.5077C16.569 20.6407 16.7543 20.7148 16.9471 20.7148C17.1398 20.7148 17.3251 20.6407 17.4646 20.5077L17.4736 20.4987C17.5414 20.4342 17.5954 20.3567 17.6324 20.2707C17.6693 20.1847 17.6883 20.092 17.6883 19.9985C17.6883 19.9049 17.6693 19.8122 17.6324 19.7262C17.5954 19.6403 17.5414 19.5627 17.4736 19.4982L9.60155 11.9982L17.4736 4.5012C17.5414 4.43674 17.5954 4.35915 17.6324 4.27315C17.6693 4.18715 17.6883 4.09454 17.6883 4.00095C17.6883 3.90736 17.6693 3.81475 17.6324 3.72875C17.5954 3.64275 17.5414 3.56516 17.4736 3.5007L17.4646 3.4917C17.3251 3.35873 17.1398 3.28456 16.9471 3.28456C16.7543 3.28456 16.569 3.35873 16.4296 3.4917L8.07005 11.4567C7.99653 11.5267 7.93801 11.611 7.89801 11.7043C7.85802 11.7977 7.8374 11.8982 7.8374 11.9997C7.8374 12.1012 7.85802 12.2017 7.89801 12.2951C7.93801 12.3884 7.99653 12.4727 8.07005 12.5427Z"/>
</mask>
<path d="M8.07005 12.5427L16.4296 20.5077C16.569 20.6407 16.7543 20.7148 16.9471 20.7148C17.1398 20.7148 17.3251 20.6407 17.4646 20.5077L17.4736 20.4987C17.5414 20.4342 17.5954 20.3567 17.6324 20.2707C17.6693 20.1847 17.6883 20.092 17.6883 19.9985C17.6883 19.9049 17.6693 19.8122 17.6324 19.7262C17.5954 19.6403 17.5414 19.5627 17.4736 19.4982L9.60155 11.9982L17.4736 4.5012C17.5414 4.43674 17.5954 4.35915 17.6324 4.27315C17.6693 4.18715 17.6883 4.09454 17.6883 4.00095C17.6883 3.90736 17.6693 3.81475 17.6324 3.72875C17.5954 3.64275 17.5414 3.56516 17.4736 3.5007L17.4646 3.4917C17.3251 3.35873 17.1398 3.28456 16.9471 3.28456C16.7543 3.28456 16.569 3.35873 16.4296 3.4917L8.07005 11.4567C7.99653 11.5267 7.93801 11.611 7.89801 11.7043C7.85802 11.7977 7.8374 11.8982 7.8374 11.9997C7.8374 12.1012 7.85802 12.2017 7.89801 12.2951C7.93801 12.3884 7.99653 12.4727 8.07005 12.5427Z" fill="black"/>
<path d="M8.07005 12.5427L9.44969 11.0947L9.44965 11.0947L8.07005 12.5427ZM16.4296 20.5077L17.8096 19.0601L17.8092 19.0597L16.4296 20.5077ZM16.9471 20.7148L16.9471 18.7148L16.9471 20.7148ZM17.4646 20.5077L18.8446 21.9553L18.8618 21.9388L18.8787 21.922L17.4646 20.5077ZM17.4736 20.4987L16.0961 19.0487L16.0775 19.0663L16.0594 19.0844L17.4736 20.4987ZM17.6883 19.9985L19.6883 19.9985L17.6883 19.9985ZM17.4736 19.4982L16.094 20.9462L16.0961 20.9482L17.4736 19.4982ZM9.60155 11.9982L8.22226 10.5499L6.70183 11.9979L8.22197 13.4462L9.60155 11.9982ZM17.4736 4.5012L16.0961 3.0512L16.0943 3.05291L17.4736 4.5012ZM17.6883 4.00095L19.6883 4.00095L17.6883 4.00095ZM17.4736 3.5007L16.0593 4.91491L16.0775 4.93304L16.0961 4.9507L17.4736 3.5007ZM17.4646 3.4917L18.8788 2.07749L18.8619 2.06058L18.8446 2.04408L17.4646 3.4917ZM16.4296 3.4917L17.8092 4.93967L17.8096 4.93932L16.4296 3.4917ZM8.07005 11.4567L9.44965 12.9047L9.44969 12.9047L8.07005 11.4567ZM8.07005 12.5427L6.69042 13.9907L15.0499 21.9557L16.4296 20.5077L17.8092 19.0597L9.44969 11.0947L8.07005 12.5427ZM16.4296 20.5077L15.0496 21.9553C15.561 22.4429 16.2405 22.7148 16.9471 22.7148L16.9471 20.7148L16.9471 18.7148C17.2682 18.7148 17.5771 18.8385 17.8096 19.0601L16.4296 20.5077ZM16.9471 20.7148V22.7148C17.6536 22.7148 18.3331 22.4429 18.8446 21.9553L17.4646 20.5077L16.0846 19.0601C16.317 18.8385 16.6259 18.7148 16.9471 18.7148V20.7148ZM17.4646 20.5077L18.8787 21.922L18.8877 21.913L17.4736 20.4987L16.0594 19.0844L16.0504 19.0934L17.4646 20.5077ZM17.4736 20.4987L18.8511 21.9487C19.1156 21.6974 19.3262 21.3949 19.4702 21.0596L17.6324 20.2707L15.7946 19.4817C15.8647 19.3184 15.9672 19.1711 16.0961 19.0487L17.4736 20.4987ZM17.6324 20.2707L19.4702 21.0596C19.6141 20.7244 19.6883 20.3633 19.6883 19.9985L17.6883 19.9985L15.6883 19.9985C15.6883 19.8208 15.7245 19.6449 15.7946 19.4817L17.6324 20.2707ZM17.6883 19.9985L19.6883 19.9985C19.6883 19.6336 19.6141 19.2725 19.4702 18.9373L17.6324 19.7262L15.7946 20.5152C15.7245 20.352 15.6883 20.1761 15.6883 19.9985L17.6883 19.9985ZM17.6324 19.7262L19.4702 18.9373C19.3262 18.602 19.1156 18.2995 18.8511 18.0482L17.4736 19.4982L16.0961 20.9482C15.9672 20.8258 15.8647 20.6785 15.7946 20.5152L17.6324 19.7262ZM17.4736 19.4982L18.8531 18.0502L10.9811 10.5502L9.60155 11.9982L8.22197 13.4462L16.094 20.9462L17.4736 19.4982ZM9.60155 11.9982L10.9808 13.4465L18.8528 5.94949L17.4736 4.5012L16.0943 3.05291L8.22226 10.5499L9.60155 11.9982ZM17.4736 4.5012L18.8511 5.9512C19.1156 5.69989 19.3262 5.3974 19.4702 5.06214L17.6324 4.27315L15.7946 3.48416C15.8647 3.3209 15.9672 3.17359 16.0961 3.0512L17.4736 4.5012ZM17.6324 4.27315L19.4702 5.06214C19.6141 4.72687 19.6883 4.36582 19.6883 4.00095L17.6883 4.00095L15.6883 4.00095C15.6883 3.82326 15.7245 3.64743 15.7946 3.48416L17.6324 4.27315ZM17.6883 4.00095L19.6883 4.00095C19.6883 3.63608 19.6141 3.27503 19.4702 2.93976L17.6324 3.72875L15.7946 4.51774C15.7245 4.35447 15.6883 4.17864 15.6883 4.00095L17.6883 4.00095ZM17.6324 3.72875L19.4702 2.93976C19.3262 2.6045 19.1156 2.30201 18.8511 2.0507L17.4736 3.5007L16.0961 4.9507C15.9672 4.82831 15.8647 4.681 15.7946 4.51774L17.6324 3.72875ZM17.4736 3.5007L18.8878 2.08649L18.8788 2.07749L17.4646 3.4917L16.0503 4.90591L16.0593 4.91491L17.4736 3.5007ZM17.4646 3.4917L18.8446 2.04408C18.3331 1.55654 17.6537 1.28456 16.9471 1.28456V3.28456V5.28456C16.6259 5.28456 16.317 5.16092 16.0846 4.93932L17.4646 3.4917ZM16.9471 3.28456V1.28456C16.2405 1.28456 15.561 1.55654 15.0496 2.04408L16.4296 3.4917L17.8096 4.93932C17.5771 5.16093 17.2682 5.28456 16.9471 5.28456V3.28456ZM16.4296 3.4917L15.0499 2.04373L6.69042 10.0087L8.07005 11.4567L9.44969 12.9047L17.8092 4.93967L16.4296 3.4917ZM8.07005 11.4567L6.69045 10.0087C6.42088 10.2655 6.20628 10.5744 6.05965 10.9167L7.89801 11.7043L9.73638 12.492C9.66973 12.6475 9.57219 12.788 9.44965 12.9047L8.07005 11.4567ZM7.89801 11.7043L6.05965 10.9167C5.91301 11.2589 5.8374 11.6274 5.8374 11.9997H7.8374H9.8374C9.8374 12.1689 9.80303 12.3364 9.73638 12.492L7.89801 11.7043ZM7.8374 11.9997H5.8374C5.8374 12.372 5.91301 12.7405 6.05965 13.0827L7.89801 12.2951L9.73638 11.5074C9.80303 11.663 9.8374 11.8305 9.8374 11.9997H7.8374ZM7.89801 12.2951L6.05965 13.0827C6.20628 13.425 6.42089 13.7339 6.69045 13.9907L8.07005 12.5427L9.44965 11.0947C9.57218 11.2114 9.66973 11.3519 9.73638 11.5074L7.89801 12.2951Z" fill="black" mask="url(#path-1-inside-1_2915_563)"/>
</svg>
