<svg width="14" height="14" viewBox="0 0 14 14" fill="none" xmlns="http://www.w3.org/2000/svg">
<path d="M7 0.875C4.58473 0.875 2.625 2.63895 2.625 4.8125C2.625 8.3125 7 13.125 7 13.125C7 13.125 11.375 8.3125 11.375 4.8125C11.375 2.63895 9.41527 0.875 7 0.875ZM7 7C6.65388 7 6.31554 6.89736 6.02775 6.70507C5.73997 6.51278 5.51566 6.23947 5.38321 5.9197C5.25076 5.59993 5.2161 5.24806 5.28363 4.90859C5.35115 4.56913 5.51782 4.2573 5.76256 4.01256C6.0073 3.76782 6.31913 3.60115 6.65859 3.53363C6.99806 3.4661 7.34993 3.50076 7.6697 3.63321C7.98947 3.76566 8.26278 3.98997 8.45507 4.27775C8.64736 4.56554 8.75 4.90388 8.75 5.25C8.74949 5.71397 8.56496 6.1588 8.23688 6.48688C7.9088 6.81496 7.46397 6.99949 7 7Z" fill="#D4CEB8"/>
</svg>
