<svg width="17" height="17" viewBox="0 0 17 17" fill="none" xmlns="http://www.w3.org/2000/svg">
<path d="M8.5 1.0625C5.56717 1.0625 3.1875 3.20443 3.1875 5.84375C3.1875 10.0938 8.5 15.9375 8.5 15.9375C8.5 15.9375 13.8125 10.0938 13.8125 5.84375C13.8125 3.20443 11.4328 1.0625 8.5 1.0625ZM8.5 8.5C8.07971 8.5 7.66887 8.37537 7.31941 8.14187C6.96996 7.90837 6.69759 7.5765 6.53676 7.1882C6.37592 6.79991 6.33384 6.37264 6.41583 5.96043C6.49782 5.54822 6.70021 5.16958 6.9974 4.8724C7.29458 4.57521 7.67322 4.37282 8.08543 4.29083C8.49764 4.20884 8.92491 4.25092 9.3132 4.41176C9.70149 4.57259 10.0334 4.84496 10.2669 5.19441C10.5004 5.54387 10.625 5.95471 10.625 6.375C10.6244 6.9384 10.4003 7.47854 10.0019 7.87692C9.60354 8.2753 9.0634 8.49938 8.5 8.5Z" fill="#717070"/>
</svg>
