<svg width="13" height="17" viewBox="0 0 13 17" fill="none" xmlns="http://www.w3.org/2000/svg">
<path d="M12.1666 7.08335C12.1666 10.6201 8.24313 14.3034 6.92563 15.441C6.80289 15.5333 6.65348 15.5832 6.49992 15.5832C6.34635 15.5832 6.19695 15.5333 6.07421 15.441C4.75671 14.3034 0.833252 10.6201 0.833252 7.08335C0.833252 5.58046 1.43027 4.13912 2.49298 3.07642C3.55569 2.01371 4.99703 1.41669 6.49992 1.41669C8.00281 1.41669 9.44415 2.01371 10.5069 3.07642C11.5696 4.13912 12.1666 5.58046 12.1666 7.08335Z" stroke="black" stroke-width="1.5" stroke-linecap="round" stroke-linejoin="round"/>
<path d="M6.5 9.20837C7.6736 9.20837 8.625 8.25698 8.625 7.08337C8.625 5.90977 7.6736 4.95837 6.5 4.95837C5.32639 4.95837 4.375 5.90977 4.375 7.08337C4.375 8.25698 5.32639 9.20837 6.5 9.20837Z" stroke="black" stroke-width="1.5" stroke-linecap="round" stroke-linejoin="round"/>
</svg>
