<svg width="24" height="23" viewBox="0 0 24 23" fill="none" xmlns="http://www.w3.org/2000/svg">
<path d="M12.6254 1.09537C15.0117 0.592242 17.4722 1.01774 19.5048 2.87499L19.5178 2.88697C17.7846 3.2751 16.2249 4.01014 14.912 5.1381C13.2273 6.58566 11.9958 8.64032 11.3039 11.3208C10.6728 13.7688 9.57602 15.5485 8.15193 16.7723C6.82704 17.9108 5.17775 18.6032 3.25964 18.8768C1.50062 16.8691 1.10243 14.4617 1.5955 12.1258C2.09431 9.76349 3.50066 7.46589 5.32389 5.6278C5.59062 5.35883 5.85848 5.09097 6.12745 4.82424C7.96554 3.00101 10.2627 1.59466 12.6254 1.09633" fill="black"/>
<path d="M4.48193 20.1135L4.49535 20.1255C6.52845 21.9823 8.98897 22.4082 11.3747 21.9046C13.7375 21.4063 16.0346 19.9999 17.8727 18.1767C18.1417 17.9098 18.4095 17.6418 18.6763 17.3727C20.5 15.5346 21.9059 13.2375 22.4047 10.8752C22.8982 8.53876 22.5 6.13143 20.7405 4.12372C18.8224 4.39732 17.1736 5.08972 15.8482 6.22822C14.4242 7.45201 13.3278 9.23164 12.6963 11.6797C12.0044 14.3602 10.7734 16.4148 9.08816 17.8624C7.77525 18.9903 6.21556 19.7254 4.48193 20.1135Z" fill="black"/>
</svg>
