<svg width="10" height="10" viewBox="0 0 10 10" fill="none" xmlns="http://www.w3.org/2000/svg">
<g clip-path="url(#clip0_2904_218)">
<path d="M2.49992 7.49994C3.09917 7.41097 3.64647 7.1095 4.04193 6.65055C4.43739 6.1916 4.65466 5.60576 4.65409 4.99994C4.6571 4.23946 4.93298 3.50532 5.43154 2.93105C5.9301 2.35679 6.61823 1.98055 7.37075 1.87077L8.44992 1.71661C8.42075 1.68327 8.39575 1.64994 8.36242 1.61661C7.00409 0.258273 4.39575 0.666606 2.52909 2.52494C0.949919 4.12494 0.416586 6.24994 1.14992 7.69161L2.49992 7.49994Z" fill="#685D4A" fill-opacity="0.93"/>
<path d="M5.30415 5.00006C5.30142 5.7604 5.02628 6.49459 4.52863 7.06945C4.03097 7.64432 3.34376 8.02179 2.59165 8.13339L1.56665 8.27922L1.62915 8.35006C2.98748 9.70839 5.59582 9.30422 7.46248 7.44589C9.03332 5.87922 9.58332 3.75006 8.85415 2.32922L7.46248 2.52922C6.86705 2.61572 6.32219 2.91234 5.92636 3.36548C5.53053 3.81862 5.30984 4.3984 5.30415 5.00006Z" fill="#685D4A" fill-opacity="0.93"/>
</g>
<defs>
<clipPath id="clip0_2904_218">
<rect width="10" height="10" fill="white"/>
</clipPath>
</defs>
</svg>
