<svg width="18" height="19" viewBox="0 0 18 19" fill="none" xmlns="http://www.w3.org/2000/svg">
<path d="M14.3496 14.6523V15.6016H3.65039V14.6523H14.3496ZM13.6875 3.40234C14.2833 3.40234 14.7947 3.60274 15.2158 4.00391C15.6379 4.40501 15.8495 4.90331 15.8496 5.49219C15.8496 6.10715 15.6418 6.63567 15.2266 7.07129C14.8105 7.50767 14.2955 7.72656 13.6875 7.72656H13.0811V8.9248C13.081 10.2027 12.6281 11.2912 11.7246 12.1846C10.8777 13.0219 9.86009 13.4675 8.67676 13.5195L8.4375 13.5244C7.12316 13.5244 5.99511 13.0826 5.05859 12.2002C4.12042 11.3162 3.65039 10.2221 3.65039 8.9248V4.25195C3.65039 4.02294 3.73615 3.82245 3.90332 3.65527C4.07049 3.4881 4.27099 3.40234 4.5 3.40234H13.6875ZM13.0811 6.77734H13.6875C14.0297 6.77734 14.3142 6.65257 14.5479 6.40137C14.7827 6.14888 14.9004 5.8476 14.9004 5.49219C14.9003 5.16976 14.7813 4.90179 14.54 4.68262C14.2963 4.46119 14.0134 4.35156 13.6875 4.35156H13.0811V6.77734ZM4.59961 6.77734H12.1309V4.35156H4.59961V6.77734Z" fill="#717070" stroke="#717070" stroke-width="0.2"/>
</svg>
