<svg width="13" height="14" viewBox="0 0 13 14" fill="none" xmlns="http://www.w3.org/2000/svg">
<path d="M6.49992 1.58337C5.78859 1.58337 5.08423 1.72348 4.42705 1.99569C3.76987 2.26791 3.17274 2.66689 2.66976 3.16988C1.65393 4.1857 1.08325 5.56345 1.08325 7.00004C1.08325 8.43663 1.65393 9.81438 2.66976 10.8302C3.17274 11.3332 3.76987 11.7322 4.42705 12.0044C5.08423 12.2766 5.78859 12.4167 6.49992 12.4167C7.93651 12.4167 9.31426 11.846 10.3301 10.8302C11.3459 9.81438 11.9166 8.43663 11.9166 7.00004C11.9166 6.28871 11.7765 5.58435 11.5043 4.92717C11.2321 4.26999 10.8331 3.67286 10.3301 3.16988C9.8271 2.66689 9.22997 2.26791 8.57279 1.99569C7.91561 1.72348 7.21124 1.58337 6.49992 1.58337ZM8.77492 9.27504L5.95825 7.54171V4.29171H6.77075V7.10837L9.20825 8.57087L8.77492 9.27504Z" fill="#D4CEB8"/>
</svg>
