<svg width="11" height="12" viewBox="0 0 11 12" fill="none" xmlns="http://www.w3.org/2000/svg">
<path d="M5.35055 9.45203L2.7568 11.0145C2.64221 11.0874 2.52242 11.1187 2.39742 11.1083C2.27242 11.0979 2.16305 11.0562 2.0693 10.9833C1.97555 10.9104 1.90263 10.8193 1.85055 10.7102C1.79846 10.601 1.78805 10.4785 1.8193 10.3427L2.5068 7.38953L0.209922 5.40515C0.105756 5.3114 0.0407557 5.20453 0.0149224 5.08453C-0.010911 4.96453 -0.00320266 4.84744 0.0380473 4.73328C0.0792973 4.61911 0.141797 4.52536 0.225547 4.45203C0.309297 4.37869 0.423881 4.33182 0.569297 4.3114L3.60055 4.04578L4.77242 1.26453C4.82451 1.13953 4.90534 1.04578 5.01492 0.983276C5.12451 0.920776 5.23638 0.889526 5.35055 0.889526C5.46471 0.889526 5.57659 0.920776 5.68617 0.983276C5.79576 1.04578 5.87659 1.13953 5.92867 1.26453L7.10055 4.04578L10.1318 4.3114C10.2776 4.33223 10.3922 4.37911 10.4755 4.45203C10.5589 4.52494 10.6214 4.61869 10.663 4.73328C10.7047 4.84786 10.7126 4.96515 10.6868 5.08515C10.661 5.20515 10.5958 5.31182 10.4912 5.40515L8.1943 7.38953L8.8818 10.3427C8.91305 10.4781 8.90263 10.6006 8.85055 10.7102C8.79846 10.8197 8.72555 10.9108 8.6318 10.9833C8.53805 11.0558 8.42867 11.0974 8.30367 11.1083C8.17867 11.1191 8.05888 11.0879 7.9443 11.0145L5.35055 9.45203Z" fill="#D4CEB8"/>
</svg>
